<svg width="86" height="98" viewBox="0 0 86 98" fill="none" xmlns="http://www.w3.org/2000/svg">
<g clip-path="url(#clip0_1_3174)">
<path d="M79.3836 8.4451H12.674C10.2269 8.4451 8.23694 10.3374 8.23694 12.6645V56.1361C8.23694 58.4631 10.2269 60.3554 12.674 60.3554H79.3836C81.8307 60.3554 83.8207 58.4631 83.8207 56.1361V12.6645C83.8207 10.3374 81.8307 8.4451 79.3836 8.4451Z" fill="#F2F2F2"/>
<path d="M72.1462 11.7935H5.43656C2.98942 11.7935 0.999512 13.6858 0.999512 16.0129V59.4845C0.999512 61.8116 2.98942 63.7039 5.43656 63.7039H72.1462C74.5933 63.7039 76.5832 61.8116 76.5832 59.4845V16.0129C76.5832 13.6858 74.5933 11.7935 72.1462 11.7935ZM76.1167 46.6896C76.1167 55.8413 68.315 63.2602 58.6913 63.2602H5.43656C3.24372 63.2602 1.46608 61.5698 1.46608 59.4845V16.0129C1.46608 13.9277 3.24372 12.2372 5.43655 12.2372H72.1462C74.339 12.2372 76.1167 13.9277 76.1167 16.0129V46.6896Z" fill="#3F3D56"/>
<path d="M10.5282 54.283L10.1334 54.0466C10.3901 53.6587 10.6549 53.2828 10.9203 52.9291L11.3001 53.1869C11.0398 53.5335 10.7802 53.9023 10.5282 54.283Z" fill="#AC6464"/>
<path d="M13.1008 51.1211L12.7668 50.8113C13.4788 50.1175 14.2281 49.5219 14.9937 49.0411L15.2509 49.4113C14.5129 49.8747 13.7895 50.45 13.1008 51.1211ZM24.7406 48.3206C24.1835 48.3206 23.6759 48.2528 23.2959 48.1937L23.3713 47.7558C23.7563 47.8158 24.22 47.877 24.7406 47.877C25.2003 47.877 25.6522 47.829 26.122 47.7301L26.2227 48.1633C25.7194 48.2692 25.2346 48.3206 24.7406 48.3206ZM17.7593 48.2619L17.619 47.8388C18.1202 47.6885 18.6394 47.5758 19.1621 47.5038C19.611 47.442 20.0402 47.412 20.4741 47.412H20.5028V47.8557H20.4741C20.0628 47.8557 19.6555 47.8842 19.2289 47.9429C18.7311 48.0115 18.2365 48.1188 17.7593 48.2619ZM28.8802 46.9797L28.582 46.6385C29.2258 46.13 29.6873 45.515 30.1759 44.8639L30.3708 44.6049L30.7495 44.8642L30.5557 45.1216C30.049 45.7968 29.5704 46.4346 28.8802 46.9797ZM32.6219 42.9117L32.3348 42.5618C32.9637 42.0952 33.6743 41.717 34.5069 41.4058C34.6488 41.3527 34.7843 41.3054 34.9144 41.2633L35.065 41.6831C34.9413 41.7233 34.8126 41.7682 34.6777 41.8187C33.8873 42.1141 33.2149 42.4716 32.6219 42.9117ZM38.2545 41.3706C38.0975 41.3706 37.9487 41.3692 37.8056 41.3677L37.8111 40.924C37.9573 40.9256 38.11 40.926 38.2715 40.9269C38.8205 40.9269 39.5852 40.9121 40.634 40.7966L40.6878 41.2373C39.6043 41.3566 38.8276 41.3691 38.2545 41.3706ZM43.5259 40.7896L43.4334 40.3548C44.2715 40.1936 45.2464 40.0018 46.2114 39.765L46.3281 40.1946C45.352 40.4341 44.3699 40.6273 43.5259 40.7896ZM49.0764 39.3535L48.9019 38.942C49.8374 38.5833 50.6497 38.1789 51.3853 37.7053L51.6469 38.0727C50.8837 38.564 50.0428 38.983 49.0764 39.3535ZM53.7905 36.1832L53.4119 35.9239C53.5421 35.7521 53.6546 35.5845 53.7634 35.4224C54.0846 34.9441 54.4169 34.4494 55.208 33.8422L55.2633 33.8L55.5524 34.1482L55.501 34.1873C54.7691 34.7492 54.4717 35.1923 54.1566 35.6613C54.0444 35.8284 53.9282 36.0013 53.7905 36.1832ZM57.976 32.8556L57.8059 32.4425C58.6374 32.1324 59.5765 31.883 60.5973 31.7009L60.6834 32.137C59.6914 32.314 58.7804 32.5558 57.976 32.8556Z" fill="#AC6464"/>
<path d="M63.5352 31.8112L63.506 31.3684C63.9594 31.3414 64.4334 31.3236 64.9149 31.3154L64.9233 31.7591C64.4486 31.7671 63.9816 31.7846 63.5352 31.8112Z" fill="#AC6464"/>
<path d="M15.7309 16.6011H9.18497C8.85605 16.6011 8.58777 16.8562 8.58777 17.169C8.58777 17.484 8.85605 17.7391 9.18497 17.7391H15.7309C16.0598 17.7391 16.3281 17.484 16.3281 17.169C16.3281 16.8562 16.0598 16.6011 15.7309 16.6011Z" fill="#E6E6E6"/>
<path d="M26.6952 16.6011H20.1493C19.8203 16.6011 19.5521 16.8562 19.5521 17.169C19.5521 17.484 19.8203 17.7391 20.1493 17.7391H26.6952C27.0241 17.7391 27.2924 17.484 27.2924 17.169C27.2924 16.8562 27.0241 16.6011 26.6952 16.6011Z" fill="#E6E6E6"/>
<path d="M37.6595 16.6011H31.1136C30.7846 16.6011 30.5164 16.8562 30.5164 17.169C30.5164 17.484 30.7846 17.7391 31.1136 17.7391H37.6595C37.9884 17.7391 38.2567 17.484 38.2567 17.169C38.2567 16.8562 37.9884 16.6011 37.6595 16.6011Z" fill="#E6E6E6"/>
<path d="M68.0684 53.943H8.58118V54.3866H68.0684V53.943Z" fill="#E6E6E6"/>
<path d="M64.9261 21.5545C60.692 21.6587 57.5333 22.8433 55.5317 25.0706C54.7922 25.8958 54.4913 26.5458 54.174 27.2335C53.8591 27.9124 53.5372 28.6112 52.7883 29.5229V28.7687C53.2526 28.1209 53.5022 27.5796 53.7471 27.0538C54.0784 26.3351 54.3933 25.6563 55.1771 24.7844C57.2674 22.4551 60.5427 21.2195 64.912 21.1108L64.9261 21.5545Z" fill="#AC6464"/>
<path d="M54.1741 27.2335C53.8591 27.9124 53.5372 28.6112 52.7884 29.5229C52.6997 29.6316 52.6041 29.7448 52.5014 29.8623C49.8 32.9171 46.1911 33.9198 43.2891 34.7273C43.1071 34.7783 42.9298 34.8249 42.7572 34.8692C40.1771 35.5348 38.7634 35.5104 37.7113 35.4948C36.6545 35.4771 35.957 35.466 34.7089 36.1448C32.4204 37.3849 31.4826 39.1995 30.5751 40.9543C29.6397 42.76 28.7579 44.466 26.509 45.2668C24.9483 45.8214 23.8519 45.5463 22.6925 45.258C21.6964 45.0073 19.9011 38.8371 18.3114 37.9373C15.0292 38.5917 13.0346 48.7919 10.5454 54.2535L10.1162 54.0761C12.6707 48.4768 14.7749 38.1902 18.2135 37.5025C19.7461 37.1963 21.764 44.5658 22.8115 44.8276C23.8986 45.1005 24.9227 45.3556 26.3457 44.8498C28.4219 44.1133 29.2244 42.5582 30.1552 40.7591C31.051 39.0287 32.0658 37.0677 34.4756 35.7588C35.8357 35.0201 36.6265 35.0334 37.7183 35.0511C38.7587 35.0689 40.1631 35.0911 42.7572 34.41C42.8878 34.3745 43.0208 34.3391 43.1584 34.3013C45.9998 33.5116 49.534 32.5288 52.1422 29.5784C52.3988 29.2878 52.6111 29.0193 52.7883 28.7687C53.2526 28.1209 53.5022 27.5796 53.7471 27.0539C54.0784 26.3351 54.4913 26.5458 54.1741 27.2335Z" fill="#0D69B2"/>
<path d="M29.2969 77.9859C29.1122 77.3744 28.796 76.8529 28.4195 76.4808L27.0516 70.5511L24.0699 71.2457L25.7786 77.186C25.6662 77.6886 25.6887 78.2886 25.8733 78.9001C26.2952 80.2971 27.4036 81.2249 28.349 80.9724C29.2943 80.72 29.7187 79.3829 29.2969 77.9859Z" fill="#FFB6B6"/>
<path d="M28.8844 39.0885C28.8844 39.0885 24.1757 38.9968 22.9784 42.2575C21.8887 45.2255 20.5968 53.3795 21.2951 53.8507L24.2678 73.9239L28.5067 73.37L27.4188 49.2852L28.8844 39.0885Z" fill="#0D69B2"/>
<path d="M50.6888 76.3487L49.8536 97.4234H38.7727L38.3248 87.9797L36.3559 97.4234H24.4794L25.9608 81.1893L27.4911 77.7751L28.5269 75.4614L50.6888 76.3487Z" fill="#2F2E41"/>
<path d="M41.824 35.0867L34.1257 34.643L31.5595 37.7487L25.9608 39.7453L28.5269 63.482L27.3605 77.6797C27.3605 77.6797 43.6903 90.1027 50.6888 76.3487L48.8225 59.7108L49.2891 40.4108L43.9236 38.1924L41.824 35.0867Z" fill="#0D69B2"/>
<path d="M56.6446 29.6874C56.7281 30.4565 56.622 31.1797 56.3778 31.7597L57.6602 39.0386L54 39.5176L53.0932 32.0822C52.7295 31.562 52.4702 30.8746 52.3867 30.1055C52.1959 28.3485 52.9943 26.8306 54.1701 26.7151C55.3459 26.5996 56.4537 27.9303 56.6446 29.6874Z" fill="#FFB6B6"/>
<path d="M50.2694 41.2442C49.0076 39.1934 45.8777 39 44.4758 40.9669C44.0926 41.5046 44.1994 42.109 44.1079 42.8352C43.7194 45.9179 49.9317 55.0274 54.2301 56.0763C54.7942 56.2139 55.1155 56.7925 55.6848 56.9089C57.3713 57.2536 58.9416 55.9806 58.8506 54.3425L57.683 33.3325L52.7777 34.9236L53.0916 45.8315L50.2694 41.2442Z" fill="#0D69B2"/>
<path d="M38.7737 34.0689C42.5188 34.0689 45.5548 31.1819 45.5548 27.6205C45.5548 24.0592 42.5188 21.1722 38.7737 21.1722C35.0287 21.1722 31.9927 24.0592 31.9927 27.6205C31.9927 31.1819 35.0287 34.0689 38.7737 34.0689Z" fill="#FFB6B6"/>
<path d="M45.09 22.8855C45.0316 22.8988 45.9826 22.0174 46.0231 21.9981C46.9562 21.5545 45.9974 25.8914 45.3232 25.7694C43.6646 25.4699 42.9484 24.8754 42.3046 26.3595C42.1249 26.7721 42.013 27.238 41.663 27.533C41.1825 27.9346 40.3846 27.9013 39.9927 28.3804C39.6778 28.7664 39.7688 29.3344 40.0021 29.7692C40.2353 30.2062 40.5899 30.5766 40.8022 31.0225C41.0402 31.5239 40.0254 33.1189 39.6381 34.0152V34.0174L39.6358 34.0226C39.5329 34.2577 39.2884 33.5805 39.0303 33.5129C38.7213 33.432 38.2662 34.1257 37.7742 33.9996C37.7719 33.9996 37.7695 33.9974 37.7672 33.9974C37.2983 33.8732 36.7758 33.7401 36.2579 33.607H36.2555C34.7975 33.2298 34.4289 33.7711 34.3589 33.7556L33.4538 32.8549C33.1432 32.6399 33.1783 31.9455 32.9592 31.7591C32.7801 31.6065 32.3335 31.959 32.2019 31.8124C31.5566 31.0936 31.4081 30.3746 31.0277 28.955C30.6801 27.6573 29.9592 23.7728 31.4406 23.5976C32.8379 23.4312 31.8162 21.5811 33.2229 21.6498C33.1389 21.3126 33.2952 20.9511 33.5495 20.7026C33.8014 20.4519 34.1373 20.2966 34.4756 20.1635C36.1436 19.5158 35.866 18.959 37.6249 19.3361C37.7999 19.1031 40.3403 19.2584 40.6576 19.3361C40.6809 19.3405 39.8714 19.5246 41.1242 19.3361C41.0775 19.6089 41.8706 19.7287 41.824 20.0016C41.999 19.7775 43.8792 21.0642 43.9235 21.3326C43.9819 21.6676 43.45 21.4968 43.8046 21.5478C44.0145 21.5789 44.3738 21.9848 44.3388 22.1867C44.4904 21.9915 44.6421 21.7985 44.796 21.6033C44.824 21.6055 44.8497 21.6099 44.8777 21.6143C45.5869 21.743 44.7738 23.9476 44.803 23.2604C44.8567 21.9981 45.7968 22.7369 45.09 22.8855Z" fill="#2F2E41"/>
<path d="M71.0684 57.2066C71.1206 57.3289 71.3009 57.3289 71.3531 57.2065C71.7174 56.3526 72.236 55.3963 72.8001 54.6654C72.8904 54.5484 72.7659 54.3921 72.6224 54.4414L71.4132 54.8574V47.7394H71.0084V54.8574L69.7988 54.4414C69.6553 54.392 69.5308 54.5484 69.6211 54.6654C70.1852 55.3962 70.7038 56.3526 71.0684 57.2066Z" fill="#3F3D56"/>
<path d="M78.9978 64.5355C78.9587 64.6623 79.0999 64.7689 79.2208 64.7039C80.0646 64.2506 81.0961 63.8084 82.0158 63.5697C82.163 63.5315 82.1678 63.3354 82.0231 63.2892L80.8041 62.8999L85.4593 57.3258L85.1423 57.0864L80.4872 62.6605L79.812 61.6193C79.7319 61.4958 79.5322 61.5446 79.5264 61.6896C79.4901 62.5956 79.2708 63.6512 78.9978 64.5355Z" fill="#3F3D56"/>
<path d="M75.2109 69.2856H67.3442C66.8558 69.2856 66.4585 68.9078 66.4585 68.4433C65.4184 65.5524 65.4389 62.7196 66.4585 59.9417C66.4585 59.4773 66.8558 59.0994 67.3442 59.0994H75.2109C75.6993 59.0994 76.0967 59.4773 76.0967 59.9417V68.4433C76.0967 68.9078 75.6993 69.2856 75.2109 69.2856Z" fill="#E6E6E6"/>
<path d="M69.0298 59.3504C67.7554 59.3504 66.7224 60.3328 66.7224 61.5446V68.2629C66.7224 68.6891 67.0857 69.0346 67.5339 69.0346H71.8842C74.0649 69.0346 75.8327 67.3535 75.8327 65.2798V60.1221C75.8327 59.6959 75.4694 59.3504 75.0212 59.3504H69.0298Z" fill="white"/>
<path d="M73.1096 61.821H69.4266C69.3337 61.821 69.2582 61.7491 69.2582 61.6608C69.2582 61.5725 69.3337 61.5007 69.4266 61.5007H73.1096C73.2025 61.5007 73.278 61.5725 73.278 61.6608C73.278 61.7491 73.2025 61.821 73.1096 61.821Z" fill="#E6E6E6"/>
<path d="M73.1096 65.2357H69.4266C69.3337 65.2357 69.2582 65.1638 69.2582 65.0755C69.2582 64.9872 69.3337 64.9154 69.4266 64.9154H73.1096C73.2025 64.9154 73.278 64.9872 73.278 65.0755C73.278 65.1638 73.2025 65.2357 73.1096 65.2357Z" fill="#E6E6E6"/>
<path d="M75.086 63.5294H67.4502C67.3574 63.5294 67.2818 63.4576 67.2818 63.3693C67.2818 63.281 67.3574 63.2092 67.4502 63.2092H75.086C75.1788 63.2092 75.2544 63.281 75.2544 63.3693C75.2544 63.4576 75.1788 63.5294 75.086 63.5294Z" fill="#E6E6E6"/>
<path d="M75.176 66.6241H71.9899C71.897 66.6241 71.8215 66.5522 71.8215 66.4639C71.8215 66.3756 71.897 66.3038 71.9899 66.3038H75.176C75.2689 66.3038 75.3444 66.3756 75.3444 66.4639C75.3444 66.5522 75.2689 66.6241 75.176 66.6241Z" fill="#E6E6E6"/>
<path d="M3.79608 5.70062C5.40183 5.70062 6.70355 4.48884 6.70355 2.99403C6.70355 1.49923 5.40183 0.287445 3.79608 0.287445C2.19033 0.287445 0.888611 1.49923 0.888611 2.99403C0.888611 4.48884 2.19033 5.70062 3.79608 5.70062Z" fill="#0D69B2"/>
<path d="M27.1041 2.06809H11.4543C10.9174 2.06809 10.4806 1.6527 10.4806 1.14216C10.4806 0.631608 10.9174 0.216217 11.4543 0.216217H27.1041C27.641 0.216217 28.0778 0.631608 28.0778 1.14216C28.0778 1.6527 27.641 2.06809 27.1041 2.06809Z" fill="#F2F2F2"/>
<path d="M39.3172 5.20204H11.4543C10.9174 5.20204 10.4806 4.78664 10.4806 4.2761C10.4806 3.76555 10.9174 3.35016 11.4543 3.35016H39.3172C39.8541 3.35016 40.2909 3.76555 40.2909 4.2761C40.2909 4.78664 39.8541 5.20204 39.3172 5.20204Z" fill="#F2F2F2"/>
</g>
<defs>
<clipPath id="clip0_1_3174">
<rect width="84.5707" height="97.2072" fill="white" transform="translate(0.888611 0.216217)"/>
</clipPath>
</defs>
</svg>
