<svg width="96" height="91" viewBox="0 0 96 91" fill="none" xmlns="http://www.w3.org/2000/svg">
<g clip-path="url(#clip0_1_3133)">
<path d="M37.3363 82.4208L34.8718 84.632L36.8304 81.4291C35.2873 78.7019 32.7636 76.3449 32.7636 76.3449C32.7636 76.3449 27.5277 81.2338 27.5277 85.0768C27.5277 88.9198 29.8719 90.2617 32.7636 90.2617C35.6552 90.2617 37.9994 88.9198 37.9994 85.0768C37.9994 84.2215 37.7396 83.3143 37.3363 82.4208Z" fill="#F2F2F2"/>
<path d="M34.2379 84.7517V84.9411C34.2264 87.143 33.8454 88.861 33.0977 90.0707C33.0871 90.0885 33.0756 90.1054 33.065 90.1232L32.9813 90.0735L32.9014 90.0247C33.7309 88.7184 34.0243 86.872 34.0349 84.9515C34.0359 84.8896 34.0368 84.8267 34.0359 84.7639C34.033 83.9509 33.982 83.1284 33.9002 82.3295C33.8944 82.2676 33.8877 82.2048 33.881 82.1419C33.7674 81.0879 33.6038 80.0807 33.4364 79.2058C33.4249 79.1439 33.4124 79.082 33.3999 79.0211C33.1102 77.5413 32.8148 76.4694 32.7475 76.2322C32.7398 76.2031 32.735 76.1872 32.734 76.1834L32.8254 76.1581L32.8264 76.1572L32.9188 76.1318C32.9197 76.1356 32.9361 76.189 32.963 76.2884C33.066 76.6598 33.3335 77.6679 33.5961 78.9976C33.6077 79.0576 33.6202 79.1195 33.6318 79.1814C33.7684 79.8913 33.9021 80.6847 34.008 81.5174C34.0349 81.7265 34.059 81.9328 34.0801 82.1363C34.0878 82.1991 34.0946 82.262 34.1003 82.3239C34.1889 83.1875 34.2347 83.9968 34.2379 84.7517Z" fill="white"/>
<path d="M33.5962 78.9976C33.5317 79.006 33.4663 79.0145 33.3999 79.021C33.2196 79.0391 33.0385 79.0482 32.8572 79.0482C32.0847 79.0492 31.3219 78.8813 30.6249 78.5569C30.5845 78.6066 30.5441 78.6563 30.5027 78.7069C31.2359 79.0557 32.0413 79.2366 32.8572 79.2358C33.0507 79.2357 33.244 79.2257 33.4365 79.2058C33.5019 79.1992 33.5673 79.1908 33.6318 79.1814C34.1639 79.107 34.6814 78.9543 35.1665 78.7285C35.1251 78.6769 35.0847 78.6262 35.0453 78.5765C34.5861 78.7857 34.0978 78.9276 33.5962 78.9976Z" fill="white"/>
<path d="M34.0801 82.1363C34.0137 82.14 33.9473 82.1419 33.881 82.1419C33.8607 82.1429 33.8396 82.1428 33.8194 82.1428C32.9824 82.1429 32.1578 81.9456 31.4159 81.5679C30.674 81.1903 30.0369 80.6433 29.5587 79.9738C29.5202 80.0291 29.4817 80.0845 29.4442 80.1407C29.9426 80.8182 30.5994 81.3702 31.3602 81.7509C32.1211 82.1317 32.9641 82.3304 33.8194 82.3304C33.8463 82.3304 33.8733 82.3304 33.9002 82.3295C33.9675 82.3285 34.0339 82.3266 34.1003 82.3238C35.1277 82.2725 36.1182 81.934 36.9533 81.3486C36.9225 81.2932 36.8917 81.2379 36.8599 81.1826C36.0483 81.7573 35.0822 82.0888 34.0801 82.1363Z" fill="white"/>
<path d="M34.2379 84.7517C34.1706 84.7573 34.1032 84.7611 34.0359 84.7639C33.9637 84.7667 33.8916 84.7686 33.8194 84.7686C32.6947 84.7673 31.6007 84.411 30.7011 83.7531C29.8016 83.0951 29.1449 82.1709 28.8294 81.1188C28.7861 81.1948 28.7428 81.2698 28.7014 81.3458C29.0569 82.3954 29.7427 83.3092 30.6615 83.9573C31.5803 84.6055 32.6852 84.9549 33.8194 84.9561C33.8916 84.9561 33.9637 84.9552 34.0349 84.9514C34.1032 84.9496 34.1706 84.9458 34.2379 84.9411C35.5984 84.8374 36.8676 84.2337 37.7885 83.2522C37.7683 83.1828 37.7452 83.1144 37.7221 83.045C36.8326 84.0338 35.5829 84.646 34.2379 84.7517Z" fill="white"/>
<path d="M95.2981 5.49892H0.933422C0.89718 5.4988 0.862468 5.48469 0.836885 5.45967C0.811302 5.43465 0.796936 5.40077 0.796936 5.36544C0.796936 5.33012 0.811302 5.29624 0.836885 5.27122C0.862468 5.2462 0.89718 5.23209 0.933422 5.23196H95.2981C95.3343 5.23209 95.369 5.2462 95.3946 5.27122C95.4202 5.29624 95.4346 5.33012 95.4346 5.36544C95.4346 5.40077 95.4202 5.43465 95.3946 5.45967C95.369 5.48469 95.3343 5.4988 95.2981 5.49892Z" fill="#CACACA"/>
<path d="M4.01582 3.63023C4.84787 3.63023 5.52237 2.97286 5.52237 2.16196C5.52237 1.35106 4.84787 0.693695 4.01582 0.693695C3.18378 0.693695 2.50928 1.35106 2.50928 2.16196C2.50928 2.97286 3.18378 3.63023 4.01582 3.63023Z" fill="#3F3D56"/>
<path d="M9.22023 3.63023C10.0523 3.63023 10.7268 2.97286 10.7268 2.16196C10.7268 1.35106 10.0523 0.693695 9.22023 0.693695C8.38819 0.693695 7.71368 1.35106 7.71368 2.16196C7.71368 2.97286 8.38819 3.63023 9.22023 3.63023Z" fill="#3F3D56"/>
<path d="M14.4247 3.63023C15.2567 3.63023 15.9312 2.97286 15.9312 2.16196C15.9312 1.35106 15.2567 0.693695 14.4247 0.693695C13.5927 0.693695 12.9182 1.35106 12.9182 2.16196C12.9182 2.97286 13.5927 3.63023 14.4247 3.63023Z" fill="#3F3D56"/>
<path d="M92.1796 1.59178H88.4817C88.4092 1.59153 88.3398 1.5633 88.2886 1.51326C88.2375 1.46322 88.2087 1.39546 88.2087 1.32482C88.2087 1.25418 88.2375 1.18641 88.2886 1.13638C88.3398 1.08634 88.4092 1.05811 88.4817 1.05786H92.1796C92.2157 1.05774 92.2514 1.06456 92.2847 1.07792C92.3181 1.09128 92.3484 1.11092 92.3739 1.13573C92.3994 1.16053 92.4197 1.19 92.4335 1.22245C92.4474 1.25489 92.4545 1.28968 92.4545 1.32482C92.4545 1.35995 92.4474 1.39475 92.4335 1.42719C92.4197 1.45964 92.3994 1.48911 92.3739 1.51391C92.3484 1.53871 92.3181 1.55836 92.2847 1.57172C92.2514 1.58508 92.2157 1.5919 92.1796 1.59178Z" fill="#3F3D56"/>
<path d="M92.1796 2.59288H88.4817C88.4092 2.59263 88.3398 2.5644 88.2886 2.51436C88.2375 2.46432 88.2087 2.39656 88.2087 2.32592C88.2087 2.25528 88.2375 2.18751 88.2886 2.13748C88.3398 2.08744 88.4092 2.05921 88.4817 2.05896H92.1796C92.2157 2.05884 92.2514 2.06566 92.2847 2.07902C92.3181 2.09238 92.3484 2.11202 92.3739 2.13682C92.3994 2.16163 92.4197 2.1911 92.4335 2.22354C92.4474 2.25599 92.4545 2.29078 92.4545 2.32592C92.4545 2.36105 92.4474 2.39584 92.4335 2.42829C92.4197 2.46074 92.3994 2.49021 92.3739 2.51501C92.3484 2.53981 92.3181 2.55946 92.2847 2.57282C92.2514 2.58618 92.2157 2.593 92.1796 2.59288Z" fill="#3F3D56"/>
<path d="M92.1796 3.59398H88.4817C88.4092 3.59373 88.3398 3.5655 88.2886 3.51546C88.2375 3.46542 88.2087 3.39766 88.2087 3.32702C88.2087 3.25637 88.2375 3.18861 88.2886 3.13858C88.3398 3.08854 88.4092 3.0603 88.4817 3.06006H92.1796C92.2157 3.05994 92.2514 3.06676 92.2847 3.08012C92.3181 3.09348 92.3484 3.11312 92.3739 3.13792C92.3994 3.16272 92.4197 3.1922 92.4335 3.22465C92.4474 3.25709 92.4545 3.29188 92.4545 3.32702C92.4545 3.36215 92.4474 3.39694 92.4335 3.42939C92.4197 3.46184 92.3994 3.49131 92.3739 3.51611C92.3484 3.54091 92.3181 3.56056 92.2847 3.57392C92.2514 3.58728 92.2157 3.5941 92.1796 3.59398Z" fill="#3F3D56"/>
<path d="M90.1161 11.5353H3.63904V56.188H90.1161V11.5353Z" fill="#F0F0F0"/>
<path d="M90.1161 19.8936V19.4557H73.2824V11.5353H72.8331V19.4557H55.9994V11.5353H55.5501V19.4557H38.7164V11.5353H38.2671V19.4557H21.4334V11.5353H20.9841V19.4557H3.63904V19.8936H20.9841V28.6435H3.63904V29.0814H20.9841V37.8314H3.63904V38.2693H20.9841V47.0176H3.63904V47.4555H20.9841V56.188H21.4334V47.4555H38.2671V56.188H38.7164V47.4555H55.5501V56.188H55.9994V47.4555H72.8331V56.188H73.2824V47.4555H90.1161V47.0176H73.2824V38.2693H90.1161V37.8314H73.2824V29.0814H90.1161V28.6435H73.2824V19.8936L90.1161 19.8936ZM38.2671 47.0176H21.4334V38.2693H38.2671V47.0176ZM38.2671 37.8314H21.4334V29.0814H38.2671V37.8314ZM38.2671 28.6435H21.4334V19.8936H38.2671V28.6435ZM55.5501 47.0176H38.7164V38.2693H55.5501V47.0176ZM55.5501 37.8314H38.7164V29.0814H55.5501V37.8314ZM55.5501 28.6435H38.7164V19.8936H55.5501V28.6435ZM72.8331 47.0176H55.9994V38.2693H72.8331V47.0176ZM72.8331 37.8314H55.9994V29.0814H72.8331V37.8314ZM72.8331 28.6435H55.9994V19.8936H72.8331V28.6435Z" fill="white"/>
<path d="M30.5675 22.0215H24.7822V27.4801H30.5675V22.0215Z" fill="#CACACA"/>
<path d="M83.8314 39.6966H78.046V45.1552H83.8314V39.6966Z" fill="#CACACA"/>
<path d="M32.3648 48.7729H26.5794V54.2316H32.3648V48.7729Z" fill="#CACACA"/>
<path d="M34.0745 21.0088H28.2892V26.4674H34.0745V21.0088Z" fill="#0D69B2"/>
<path d="M61.2703 43.6992L68.1356 37.7379L70.161 38.7159L61.927 47.1328L61.2703 43.6992Z" fill="#FFB6B6"/>
<path d="M69.0393 39.7868C69.9416 39.7868 70.6731 39.0739 70.6731 38.1944C70.6731 37.315 69.9416 36.6021 69.0393 36.6021C68.1369 36.6021 67.4054 37.315 67.4054 38.1944C67.4054 39.0739 68.1369 39.7868 69.0393 39.7868Z" fill="#FFB6B6"/>
<path d="M54.8442 88.5684H53.2197L52.4468 82.4617L54.8444 82.4619L54.8442 88.5684Z" fill="#FFB6B6"/>
<path d="M55.2585 90.103L50.0205 90.1028V90.0383C50.0205 89.5113 50.2354 89.0059 50.6177 88.6333C51 88.2607 51.5186 88.0514 52.0593 88.0513L55.2586 88.0515L55.2585 90.103Z" fill="#2F2E41"/>
<path d="M48.9623 88.5684H47.3378L46.5649 82.4617L48.9625 82.4619L48.9623 88.5684Z" fill="#FFB6B6"/>
<path d="M49.3766 90.103L44.1386 90.1028V90.0383C44.1386 89.5113 44.3535 89.0059 44.7358 88.6333C45.1181 88.2607 45.6367 88.0514 46.1774 88.0513L49.3767 88.0515L49.3766 90.103Z" fill="#2F2E41"/>
<path d="M56.2085 53.6614C56.2085 53.6614 60.2932 53.3429 58.9861 60.3493C57.679 67.3556 54.9715 86.5213 54.9715 86.5213L52.5169 86.8501L51.0667 61.2834L49.9696 86.8501L46.8478 86.5213L43.7912 59.0754C43.7912 59.0754 42.8097 56.8687 43.7906 55.3446C44.7715 53.8206 56.2085 53.6614 56.2085 53.6614Z" fill="#2F2E41"/>
<path d="M53.5944 36.3048L54.7284 35.7127C54.7284 35.7127 57.5225 35.4804 58.6628 38.6792L61.6869 43.1307L66.5885 38.9906L68.7125 40.4237L62.535 47.6091L59.9664 47.929L54.4113 40.9226L53.5944 36.3048Z" fill="#3F3D56"/>
<path d="M49.4792 23.3856C44.8198 23.3856 43.5156 28.3739 43.5156 31.1881C43.5156 34.0023 46.1856 33.5766 49.4792 33.5766C50.8929 33.5766 52.1909 33.6544 53.213 33.5214L53.7045 32.3515L54.1001 33.3209C54.9391 33.0204 55.4428 32.4098 55.4428 31.1881C55.4428 28.3739 54.2991 23.3856 49.4792 23.3856Z" fill="#2F2E41"/>
<path d="M49.4592 33.5719C51.6755 33.5719 53.4722 31.8209 53.4722 29.6609C53.4722 27.501 51.6755 25.75 49.4592 25.75C47.2429 25.75 45.4463 27.501 45.4463 29.6609C45.4463 31.8209 47.2429 33.5719 49.4592 33.5719Z" fill="#FFB6B6"/>
<path d="M44.8227 29.2773H46.4099L47.1101 27.3665L47.2501 29.2773H48.0087L48.4172 28.1626L48.4989 29.2773H54.1357C54.1357 28.1793 53.6882 27.1262 52.8915 26.3498C52.0948 25.5734 51.0143 25.1372 49.8877 25.1372H49.0707C47.9441 25.1372 46.8636 25.5734 46.0669 26.3498C45.2703 27.1262 44.8227 28.1793 44.8227 29.2773Z" fill="#2F2E41"/>
<path d="M71.6534 32.1552H65.868V37.6138H71.6534V32.1552Z" fill="#0D69B2"/>
<path d="M57.4782 52.2206C56.8621 52.2283 55.0062 41.4961 55.0062 41.4961L54.7284 35.7127L52.7006 35.6463V35.5163C52.7006 35.2552 52.5942 35.0049 52.4048 34.8203C52.2154 34.6357 51.9585 34.532 51.6907 34.532H47.8286C47.5721 34.5321 47.3252 34.6275 47.1382 34.7987C46.9512 34.9699 46.8381 35.2041 46.822 35.4536L45.2318 35.4016L42.4777 43.9292C42.4777 43.9292 45.0155 51.8528 43.7906 55.3446C43.7906 55.3446 55.7241 56.3434 58.0086 54.1266C58.0086 54.1266 58.0944 52.2128 57.4782 52.2206Z" fill="#3F3D56"/>
<path d="M45.9152 36.464L45.2317 35.4016C45.2317 35.4016 43.008 34.8658 42.0925 36.3018C41.177 37.7379 38.486 45.5192 38.486 45.5192L41.2636 46.4746L44.4155 42.168L45.9152 36.464Z" fill="#3F3D56"/>
<path d="M52.864 42.0278H47.0786V47.4864H52.864V42.0278Z" fill="#0D69B2"/>
<path d="M42.6399 44.0007L40.6272 43.7931C40.5001 44.0574 40.4363 44.3463 40.4407 44.6382C40.4451 44.93 40.5176 45.217 40.6526 45.4775C40.7876 45.738 40.9816 45.9652 41.22 46.1418C41.4584 46.3184 41.7349 46.4399 42.0286 46.497L49.9926 48.0461L49.1618 45.5526L42.6399 44.0007Z" fill="#FFB6B6"/>
<path d="M50.0166 48.0748C50.9189 48.0748 51.6504 47.3619 51.6504 46.4825C51.6504 45.6031 50.9189 44.8901 50.0166 44.8901C49.1142 44.8901 48.3827 45.6031 48.3827 46.4825C48.3827 47.3619 49.1142 48.0748 50.0166 48.0748Z" fill="#FFB6B6"/>
<path d="M47.9769 48.1233L41.9096 46.7721C41.47 46.673 41.064 46.465 40.7311 46.1681C40.3981 45.8713 40.1494 45.4957 40.0091 45.0777L39.7639 44.3408L41.3385 43.1332L48.5524 45.0983L47.9769 48.1233Z" fill="#3F3D56"/>
<path d="M82.0709 90.4234H19.8207C19.7774 90.4234 19.7358 90.4066 19.7052 90.3768C19.6746 90.3469 19.6573 90.3064 19.6573 90.2642C19.6573 90.222 19.6746 90.1815 19.7052 90.1516C19.7358 90.1217 19.7774 90.1049 19.8207 90.1049H82.0709C82.1142 90.1049 82.1558 90.1217 82.1864 90.1516C82.2171 90.1815 82.2343 90.222 82.2343 90.2642C82.2343 90.3064 82.2171 90.3469 82.1864 90.3768C82.1558 90.4066 82.1142 90.4234 82.0709 90.4234Z" fill="#CACACA"/>
</g>
<defs>
<clipPath id="clip0_1_3133">
<rect width="94.6386" height="89.7297" fill="white" transform="translate(0.796204 0.693695)"/>
</clipPath>
</defs>
</svg>
