<svg width="99" height="82" viewBox="0 0 99 82" fill="none" xmlns="http://www.w3.org/2000/svg">
<g clip-path="url(#clip0_1_3053)">
<path d="M90.6158 39.9143H11.6973C10.6394 39.9143 9.77884 38.8239 9.77884 37.4835V3.34958C9.77884 2.00931 10.6394 0.918915 11.6973 0.918915H90.6158C91.6736 0.918915 92.5342 2.00931 92.5342 3.34958V37.4835C92.5342 38.8239 91.6736 39.9143 90.6158 39.9143ZM11.6973 1.2087C10.7656 1.2087 10.0076 2.16913 10.0076 3.34958V37.4835C10.0076 38.6641 10.7656 39.6245 11.6973 39.6245H90.6158C91.5475 39.6245 92.3055 38.6641 92.3055 37.4835V3.34958C92.3055 2.16913 91.5475 1.2087 90.6158 1.2087H11.6973Z" fill="#3F3D56"/>
<path d="M98.144 80.6919H0.820648V80.9358H98.144V80.6919Z" fill="#E6E6E6"/>
<path d="M98.144 68.2309H0.820648V68.4748H98.144V68.2309Z" fill="#E6E6E6"/>
<path d="M45.1737 41.1696C45.2436 42.2824 45.7534 43.1387 46.3123 43.0823C46.8712 43.0258 47.2675 42.078 47.1975 40.9648C47.1743 40.5197 47.0674 40.088 46.8856 39.706L46.5425 34.9958L44.8014 35.247L45.3244 39.8637C45.1926 40.2775 45.1409 40.7253 45.1737 41.1696Z" fill="#FFB6B6"/>
<path d="M43.0938 19.195C43.0938 19.195 44.7213 18.1033 45.5466 19.7346C46.3718 21.3659 46.9414 39.0087 46.9414 39.0087L44.654 39.3181L44.2204 26.8858L43.0938 19.195Z" fill="#E6E6E6"/>
<path d="M39.7157 67.3104L41.0408 67.3103L41.6712 60.8342L39.7155 60.8344L39.7157 67.3104Z" fill="#FFB6B6"/>
<path d="M44.2558 67.2723C44.297 67.3604 44.3188 67.6446 44.3188 67.7469C44.3188 68.0617 44.1174 68.3168 43.869 68.3168H39.7653C39.5958 68.3168 39.4585 68.1427 39.4585 67.928V67.7116C39.4585 67.7116 39.2555 67.061 39.6734 66.259C39.6734 66.259 40.1929 66.887 40.9691 65.9035L41.198 65.3781L42.8549 66.9134L43.7733 67.0567C43.9742 67.088 44.1524 67.0518 44.2558 67.2723Z" fill="#2F2E41"/>
<path d="M47.384 67.0324L48.6679 66.6167L48.0136 60.1445L46.1187 60.758L47.384 67.0324Z" fill="#FFB6B6"/>
<path d="M51.7753 65.5719C51.8325 65.6442 51.9091 65.9127 51.9291 66.0119C51.9906 66.3168 51.8453 66.6272 51.6047 66.7051L47.6286 67.992C47.4644 68.0451 47.2973 67.9196 47.2554 67.7115L47.2131 67.5018C47.2131 67.5018 46.8893 66.9351 47.1376 66.027C47.1376 66.027 47.7636 66.4725 48.3235 65.2762L48.4427 64.6954L50.348 65.6634L51.2658 65.5142C51.4666 65.4815 51.6321 65.3906 51.7753 65.5719Z" fill="#2F2E41"/>
<path d="M38.6194 17.8028L38.5566 17.2251L39.3034 14.9143L41.3551 14.6255L41.7981 17.9337L38.6194 17.8028Z" fill="#FFB6B6"/>
<path opacity="0.1" d="M38.6194 17.8028L38.5566 17.2251L39.3034 14.9143L41.3551 14.6255L41.7981 17.9337L38.6194 17.8028Z" fill="black"/>
<path d="M36.2257 34.1227L35.3138 37.3L35.9977 39.0331L39.4173 64.1628H41.6908L41.2411 41.9216L46.4845 64.1628H48.7347L46.9252 49.1428L45.5726 35.2781L44.7523 34.6359L40.7852 31.8119L36.2257 34.1227Z" fill="#2F2E41"/>
<path d="M42.039 36.2891L40.6712 36.5779L38.8474 31.0898H42.9509L42.039 36.2891Z" fill="#E6E6E6"/>
<path d="M44.7747 34.8448L42.039 36.2891L41.1271 33.6894L40.6712 36.5779L35.8837 34.6253L36.5677 31.0898L35.8837 19.5359L38.298 17.4966L38.6194 17.2251L41.5831 17.514L41.843 17.6931L43.6348 18.9582L44.0908 28.4902L44.7747 34.8448Z" fill="#2F2E41"/>
<path d="M41.843 17.6931L40.5572 24.5907L38.298 17.4966L38.6194 17.2251L41.5831 17.514L41.843 17.6931Z" fill="#E6E6E6"/>
<path d="M39.6453 17.2251L39.1894 18.22L39.6453 18.5517L39.4173 24.6087L40.3292 26.1794L41.2411 23.8579L40.5572 18.5517L40.7852 17.2251H39.6453Z" fill="#2F2E41"/>
<path d="M40.3292 16.6474C41.5253 16.6474 42.495 15.4189 42.495 13.9034C42.495 12.3879 41.5253 11.1593 40.3292 11.1593C39.1331 11.1593 38.1635 12.3879 38.1635 13.9034C38.1635 15.4189 39.1331 16.6474 40.3292 16.6474Z" fill="#FFB6B6"/>
<path d="M38.9452 14.1441L39.4131 14.4028L39.6173 12.8503C39.6173 12.8503 40.4342 12.3328 41.0469 12.5915C41.6596 12.8503 42.6807 12.5915 42.6807 12.5915C42.6807 12.5915 42.6807 10.0039 41.2512 10.0039C39.8216 10.0039 38.392 10.2627 38.392 11.039C38.392 11.8153 37.7793 12.5915 37.7793 12.5915C37.7793 12.5915 36.9624 14.1441 37.7793 15.1791C38.5962 16.2142 39.0047 16.2142 39.0047 16.2142L38.9452 14.1441Z" fill="#2F2E41"/>
<path d="M34.7428 41.0884C34.7191 42.2043 35.1542 43.1244 35.7147 43.1434C36.2752 43.1624 36.7487 42.2733 36.7724 41.157C36.7866 40.7113 36.7164 40.2677 36.5677 39.8634L36.6212 35.1337L34.8689 35.1492L35.0022 39.8102C34.8364 40.2039 34.7474 40.6422 34.7428 41.0884Z" fill="#FFB6B6"/>
<path d="M36.9107 18.9528C36.9107 18.9528 35.4289 18.3751 34.745 20.1082C34.0611 21.8413 34.973 39.461 34.973 39.461H37.2733L36.6628 27.0405L36.9107 18.9528Z" fill="#E6E6E6"/>
<path d="M93.7553 51.7782L88.2293 49.6349C88.107 49.5875 87.9788 49.5702 87.8514 49.5839L59.8447 52.6039C59.4454 52.647 59.345 53.3294 59.7053 53.5518L60.6024 54.1055H60.5785V80.6143H61.4238V54.6126L64.2354 56.3481C64.4506 56.4809 64.6906 56.5351 64.9287 56.5046L65.2279 56.4663V80.6143H66.0732V56.3581L87.735 53.5858V80.6143H88.5804V53.4776L92.1731 53.0178V80.6143H93.0184V52.9096L93.6738 52.8257C94.134 52.7668 94.1975 51.9497 93.7553 51.7782Z" fill="#3F3D56"/>
<path d="M67.9752 52.499C68.5036 52.499 76.3229 51.294 76.3229 51.294L77.4853 53.3022L69.3489 55.3105L67.9752 52.499Z" fill="white"/>
<path d="M76.5571 79.5848L75.1986 79.5817L74.5613 72.941L76.5664 72.9456L76.5571 79.5848Z" fill="#A0616A"/>
<path d="M71.9027 79.5356C71.8603 79.6258 71.8376 79.9171 71.8374 80.022C71.837 80.3447 72.0431 80.6067 72.2977 80.6073L76.5049 80.6164C76.6786 80.6168 76.8197 80.4387 76.82 80.2185L76.8203 79.9966C76.8203 79.9966 77.0293 79.33 76.6019 78.507C76.6019 78.507 76.0685 79.1496 75.2741 78.1396L75.0402 77.6004L73.3394 79.1708L72.3976 79.3156C72.1916 79.3473 72.009 79.3097 71.9027 79.5356Z" fill="#2F2E41"/>
<path d="M83.8484 76.4968L82.7765 77.5211L79.148 72.7705L80.73 71.2586L83.8484 76.4968Z" fill="#A0616A"/>
<path d="M80.158 79.9758C80.167 80.0789 80.2862 80.3256 80.3355 80.4084C80.4871 80.663 80.7728 80.7136 80.9737 80.5216L84.2929 77.3491C84.43 77.2181 84.4573 76.9711 84.3539 76.7975L84.2496 76.6224C84.2496 76.6224 84.1005 75.9392 83.3763 75.6137C83.3763 75.6137 83.2585 76.5232 82.1571 76.3278L81.7189 76.0798L81.1182 78.6025L80.4443 79.4284C80.2969 79.6091 80.1354 79.7175 80.158 79.9758Z" fill="#2F2E41"/>
<path d="M81.0092 42.1763C81.0092 43.7636 79.9936 45.0503 78.7408 45.0503C77.488 45.0503 76.4724 43.7636 76.4724 42.1763C76.4724 40.589 77.488 39.3022 78.7408 39.3022C79.9936 39.3022 81.0092 40.589 81.0092 42.1763Z" fill="#A0616A"/>
<path d="M80.7954 58.7475C80.7954 58.7475 72.4436 58.1485 71.9708 59.3464C71.4981 60.5444 74.5266 76.9995 74.5266 76.9995L77.2285 76.282L75.9104 64.7372C75.9104 64.7372 82.8798 67.0759 83.8253 64.2806C84.7708 61.4854 84.4986 60.4446 84.4986 60.4446L80.7954 58.7475Z" fill="#2F2E41"/>
<path d="M82.9353 56.7366C82.9353 56.7366 74.7559 58.9582 74.5501 60.272C74.3443 61.5857 80.7005 76.4396 80.7005 76.4396L83.1563 74.842L79.4748 64.1503C79.4748 64.1503 86.6842 64.0697 87.0124 61.0571C87.3407 58.0446 86.8609 57.1321 86.8609 57.1321L82.9353 56.7366Z" fill="#2F2E41"/>
<path d="M83.8683 45.4701H79.9387L77.2499 51.0606C77.2499 51.0606 76.6195 54.6733 77.2499 55.0632C77.8802 55.4531 77.8802 59.6459 77.8802 59.6459L84.4986 60.4446C84.4986 60.4446 85.4441 47.866 85.129 46.6681C84.8138 45.4701 83.8683 45.4701 83.8683 45.4701Z" fill="#0D69B2"/>
<path d="M77.6438 49.1638L77.2499 55.0632L72.8187 52.6804L71.7612 52.0065C71.554 51.6643 71.2852 51.3899 70.9772 51.2063C70.2113 50.7334 69.3982 50.8505 69.1608 51.4679C68.9233 52.0852 69.3514 52.9689 70.1171 53.4416C70.4211 53.6358 70.7574 53.735 71.0979 53.7308L74.1922 55.9576L74.1959 55.9489L74.2096 55.9799L79.0621 58.5478L80.1786 50.8033L77.6438 49.1638Z" fill="#A0616A"/>
<path d="M77.1711 42.575C77.1711 42.575 74.8074 42.9744 75.7528 40.3788C75.7528 40.3788 75.6087 38.9717 76.3111 38.8766C77.0135 38.7815 77.959 37.1842 77.959 37.1842C77.959 37.1842 80.1267 35.7866 81.249 37.1842C82.3713 38.5819 85.6805 46.7679 85.6805 46.7679L83.4744 49.7628C83.4744 49.7628 82.1481 45.3451 80.6051 45.8569C79.0621 46.3686 77.6438 47.8943 77.6438 47.8943C77.6438 47.8943 76.0779 46.9014 76.7821 46.036C77.4862 45.1706 77.1711 42.575 77.1711 42.575Z" fill="#2F2E41"/>
<path d="M80.3227 46.9675C80.3227 46.9675 79.2196 45.1706 78.4317 46.5682C77.6438 47.9658 77.0135 49.7628 77.0135 49.7628L80.1651 51.1604L80.3227 46.9675Z" fill="#0D69B2"/>
<path d="M92.289 80.2169L88.6274 65.4709L88.6279 65.4709H88.6364L88.6216 65.4468L88.6213 65.4462L88.3605 64.3959L88.3606 64.3958C88.7579 63.962 89.0284 63.3421 89.0823 62.6285L87.4085 50.9647C87.5237 49.433 86.597 48.0942 85.3829 48.0393L81.6063 48.0273C80.5327 47.9791 79.6029 48.9618 79.4465 50.3086L79.363 51.0236L78.2059 60.9965C78.1637 61.3553 78.1806 61.7088 78.2471 62.0394L77.4145 62.1773L77.1619 62.2202L76.1634 62.3849L76.1602 62.3862L76.0355 62.4063H75.9003V66.6905H75.9087V80.3841C75.9087 80.4724 75.9658 80.5447 76.0355 80.5447C76.1063 80.5447 76.1634 80.4724 76.1634 80.3841V66.6905H77.6448L79.1231 80.368C79.1326 80.4483 79.1865 80.5072 79.2499 80.5072C79.2552 80.5072 79.2616 80.5072 79.2668 80.5059C79.3366 80.4938 79.3852 80.4122 79.3757 80.3238L77.9027 66.6905H85.0109C85.7167 66.6905 86.3707 66.4067 86.9033 65.9208L89.7216 80.3429C89.7363 80.4159 89.788 80.4644 89.8449 80.4644C89.8552 80.4644 89.8658 80.4628 89.8763 80.4594C89.9444 80.4374 89.9856 80.3496 89.9683 80.2634L87.1227 65.7018C87.1606 65.6619 87.1984 65.6192 87.2342 65.5753L88.3655 65.491L92.0462 80.3137C92.0633 80.3826 92.1135 80.4267 92.1676 80.4267C92.1803 80.4267 92.1931 80.4242 92.2058 80.4192C92.2729 80.3924 92.3101 80.3018 92.289 80.2169ZM88.1186 64.6247C88.1281 64.618 88.1366 64.61 88.145 64.6033L88.1723 64.7127L88.1186 64.6247Z" fill="#E6E6E6"/>
<path d="M20.4407 55.2219L22.905 53.2363L23.9069 54.002L20.4407 59.0483V55.2219Z" fill="#FFB6B6"/>
<path d="M17.0708 47.5363C17.0708 47.5363 15.4339 48.0243 16.2042 50.8301C16.9745 53.636 19.4778 59.4916 20.2481 59.1257C21.0184 58.7597 21.1147 55.0999 21.1147 55.0999C21.1147 55.0999 21.0184 55.2219 20.6332 54.7339C20.2481 54.2459 20.2481 54.4688 20.2481 53.9304C20.2481 53.392 19.9331 52.9929 19.9331 52.9929L19.5741 52.0501C19.5741 52.0501 19.5741 47.6583 18.1299 47.4143C16.6856 47.1704 17.0708 47.5363 17.0708 47.5363Z" fill="#E6E6E6"/>
<path d="M24.718 53.8708C25.3572 53.0609 25.5554 51.9988 25.1606 51.4986C24.7658 50.9983 23.9275 51.2494 23.2883 52.0593C22.6491 52.8692 22.4509 53.9312 22.8458 54.4315C23.2406 54.9317 24.0788 54.6807 24.718 53.8708Z" fill="#FFB6B6"/>
<path d="M10.6953 63.7005L12.3769 67.2269L22.1762 66.4922L19.5669 62.2311L10.6953 63.7005Z" fill="#E6E6E6"/>
<path d="M13.6234 80.1938C13.5663 80.1938 13.5166 80.1404 13.5086 80.0668L10.5804 52.9704C10.5717 52.89 10.6161 52.8159 10.6796 52.8049C10.743 52.7933 10.8015 52.8501 10.8102 52.9305L13.7384 80.0269C13.7471 80.1074 13.7027 80.1815 13.6393 80.1924C13.6339 80.1934 13.6286 80.1938 13.6234 80.1938Z" fill="#E6E6E6"/>
<path d="M10.6953 80.2283C10.6313 80.2283 10.5794 80.1625 10.5794 80.0813V52.9557C10.5794 52.8746 10.6313 52.8088 10.6953 52.8088C10.7594 52.8088 10.8113 52.8746 10.8113 52.9557V80.0813C10.8113 80.1625 10.7594 80.2283 10.6953 80.2283Z" fill="#E6E6E6"/>
<path d="M25.3943 80.1204C25.345 80.1204 25.2993 80.0802 25.2837 80.0175L18.3546 52.113C18.3354 52.0356 18.3693 51.9531 18.4304 51.9287C18.4915 51.9045 18.5566 51.9474 18.5758 52.0248L25.5049 79.9293C25.5242 80.0067 25.4902 80.0892 25.4291 80.1136C25.4175 80.1182 25.4058 80.1204 25.3943 80.1204Z" fill="#E6E6E6"/>
<path d="M23.2778 80.1548C23.226 80.1548 23.1789 80.1106 23.1655 80.0441L18.3528 55.4164C18.337 55.3378 18.3746 55.2578 18.4366 55.2377C18.4989 55.2179 18.5618 55.2653 18.5776 55.3439L23.3903 79.9716C23.4061 80.0503 23.3686 80.1303 23.3065 80.1503C23.2969 80.1534 23.2873 80.1548 23.2778 80.1548Z" fill="#E6E6E6"/>
<path d="M10.6953 53.3879L18.7261 53.2314L20.2047 63.9209H10.8113L10.6953 53.3879Z" fill="#E6E6E6"/>
<path d="M23.0367 69.106L21.0128 73.6207L23.3627 74.2762L24.3424 71.0651L23.0367 69.106Z" fill="#FFB6B6"/>
<path d="M21.7397 72.7684C21.7397 72.7684 21.6611 72.0321 21.1987 72.2657C20.7364 72.4994 19.402 73.3677 19.402 73.3677C19.402 73.3677 22.8824 80.5328 23.5429 80.1991C24.2034 79.8653 23.4127 77.8399 23.4127 77.8399L23.5872 74.2597L21.7397 72.7684Z" fill="#2F2E41"/>
<path d="M14.086 60.3456C14.086 60.3456 13.3638 64.5543 15.5784 66.0183C17.7929 67.4822 25.3511 63.8834 25.3511 63.8834L21.8849 70.4638L24.292 71.6909C24.292 71.6909 29.7802 62.5415 29.395 61.0775C29.0099 59.6136 26.4102 59.4916 26.4102 59.4916L20.537 59.8576L18.9964 59.2477L14.086 60.3456Z" fill="#2F2E41"/>
<path d="M20.0425 71.1097L16.8607 74.3818L18.8613 76.0758L20.6961 73.5366L20.0425 71.1097Z" fill="#FFB6B6"/>
<path d="M17.7827 73.923C17.7827 73.923 17.9208 73.201 17.4231 73.2054C16.9253 73.2099 15.4331 73.4034 15.4331 73.4034C15.4331 73.4034 16.617 81.682 17.3281 81.6756C18.0392 81.6693 17.8844 79.4182 17.8844 79.4182L19.0752 76.1639L17.7827 73.923Z" fill="#2F2E41"/>
<path d="M14.2214 58.8232C14.2214 58.8232 12.34 62.4105 13.9823 64.795C15.6246 67.1796 23.6982 67.3122 23.6982 67.3122L18.5798 71.8434L20.4694 74.0962C20.4694 74.0962 28.209 68.1043 28.2707 66.5631C28.3324 65.022 25.946 63.7098 25.946 63.7098L20.3703 61.3429L19.1105 60.0645L14.2214 58.8232Z" fill="#2F2E41"/>
<path d="M19.0544 50.5142C19.0544 50.5142 17.2251 49.6603 16.3585 49.6603C16.2757 49.6603 16.1939 49.6724 16.112 49.6944C15.5574 49.8432 15.0471 50.4471 14.8026 50.7765C14.7072 50.9058 14.6524 50.9924 14.6524 50.9924C14.6524 50.9924 14.6581 50.9082 14.6697 50.7606C14.7265 49.9847 14.9364 47.4388 15.3129 45.8089C15.4477 45.227 15.6027 44.7622 15.7808 44.5365C16.1958 44.0095 16.3874 43.3776 16.476 42.9067C16.5511 42.5029 16.5511 42.2187 16.5511 42.2187L15.8492 41.8356L15.7192 40.7596C15.6961 40.8865 15.5892 41.1342 15.2301 41.6087C15.1993 41.649 15.1656 41.6831 15.1299 41.7124C14.6119 42.1247 13.5557 41.4074 12.9867 40.9561C13.2235 39.913 13.6529 38.959 14.4328 38.8029C16.2622 38.4369 16.2622 37.095 17.4176 38.5589C17.5129 38.6797 17.6092 38.7956 17.7055 38.9078C18.0752 39.8032 18.21 41.0036 18.2582 41.8381C18.2928 42.4224 18.2842 42.8286 18.2842 42.8286C18.2842 42.8286 18.7656 46.4884 19.5359 47.2204C20.3061 47.9524 19.0544 50.5142 19.0544 50.5142Z" fill="#2F2E41"/>
<path d="M15.4919 44.6585L14.191 47.0763L17.1288 48.0743V44.6585H15.4919Z" fill="#FFB6B6"/>
<path opacity="0.1" d="M15.4919 44.6585L14.191 47.0763L17.1288 48.0743V44.6585H15.4919Z" fill="black"/>
<path d="M17.3115 46.9874L14.5193 45.5235C14.5193 45.5235 10.7642 47.5973 11.0531 51.6231C11.3419 55.6489 14.0378 62.6025 14.0378 62.6025L19.4297 59.6747L18.852 51.8671L17.3115 46.9874Z" fill="#E6E6E6"/>
<path d="M16.1143 45.738C17.4748 45.738 18.5777 44.3406 18.5777 42.6168C18.5777 40.893 17.4748 39.4956 16.1143 39.4956C14.7538 39.4956 13.6509 40.893 13.6509 42.6168C13.6509 44.3406 14.7538 45.738 16.1143 45.738Z" fill="#FFB6B6"/>
<path d="M19.4396 41.4867C18.9582 42.0967 18.573 42.7067 18.573 42.7067L18.3805 41.7307C18.3805 41.7307 18.3362 41.7722 18.2582 41.8381C17.953 42.1016 17.1336 42.764 16.476 42.9067C16.1833 42.9702 15.9233 42.9299 15.7538 42.7067C15.3947 42.2321 15.2878 41.9845 15.2647 41.8576L15.1347 42.9336L14.4328 43.3166C14.4328 43.3166 14.4328 44.6561 15.2031 45.6345C15.2407 45.6821 15.2772 45.7406 15.3129 45.8089C15.6807 46.5116 15.9445 48.2317 16.112 49.6944C16.2603 50.9949 16.3315 52.0903 16.3315 52.0903C16.3315 52.0903 15.6027 50.9339 14.8026 50.7765C14.7583 50.7679 14.714 50.7618 14.6697 50.7606C14.6552 50.7582 14.6398 50.7582 14.6254 50.7582C13.7588 50.7582 11.9295 51.6121 11.9295 51.6121C11.9295 51.6121 10.6778 49.0503 11.448 48.3183C12.2183 47.5864 12.6997 43.9266 12.6997 43.9266C12.6997 43.9266 12.668 42.3602 12.9867 40.9561C13.2235 39.913 13.6529 38.959 14.4328 38.8029C16.2622 38.4369 16.2622 37.095 17.4176 38.5589C17.5129 38.6797 17.6092 38.7956 17.7055 38.9078C18.782 40.1619 19.8815 40.9268 19.4396 41.4867Z" fill="#2F2E41"/>
<path d="M8.63527 57.8626H7.7204V80.756H8.63527V57.8626Z" fill="#3F3D56"/>
<path d="M30.8209 57.8626H29.906V80.756H30.8209V57.8626Z" fill="#3F3D56"/>
<path d="M24.9886 48.1547H18.9276V55.8341H24.9886V48.1547Z" fill="#0D69B2"/>
<path d="M15.4339 56.3198L17.8983 54.3342L18.9001 55.0999L15.4339 60.1463V56.3198Z" fill="#FFB6B6"/>
<path d="M12.064 48.6343C12.064 48.6343 10.4272 49.1222 11.1975 51.9281C11.9677 54.7339 14.4711 60.5896 15.2414 60.2236C16.0116 59.8576 16.1079 56.1978 16.1079 56.1978C16.1079 56.1978 16.0116 56.3198 15.6265 55.8319C15.2414 55.3439 15.2414 55.5667 15.2414 55.0283C15.2414 54.4899 14.9264 54.0908 14.9264 54.0908L14.5674 53.148C14.5674 53.148 14.5674 48.7563 13.1231 48.5123C11.6789 48.2683 12.064 48.6343 12.064 48.6343Z" fill="#E6E6E6"/>
<path d="M19.7113 54.9687C20.3505 54.1588 20.5486 53.0967 20.1538 52.5965C19.759 52.0963 18.9208 52.3473 18.2816 53.1572C17.6423 53.9671 17.4442 55.0292 17.839 55.5294C18.2338 56.0296 19.0721 55.7786 19.7113 54.9687Z" fill="#FFB6B6"/>
<path d="M32.6506 56.9933H4.97577V59.6014H32.6506V56.9933Z" fill="#3F3D56"/>
<path d="M60.7681 36.1284H56.6809C56.3569 36.1284 56.0942 36.4612 56.0942 36.8717V39.0075C56.0942 39.418 56.3569 39.7508 56.6809 39.7508H60.7681C61.0921 39.7508 61.3547 39.418 61.3547 39.0075V36.8717C61.3547 36.4612 61.0921 36.1284 60.7681 36.1284Z" fill="#3F3D56"/>
<path d="M69.345 38.2642H65.2578C64.9338 38.2642 64.6711 38.5969 64.6711 39.0075V39.0075C64.6711 39.418 64.9338 39.7508 65.2578 39.7508H69.345C69.669 39.7508 69.9317 39.418 69.9317 39.0075V39.0075C69.9317 38.5969 69.669 38.2642 69.345 38.2642Z" fill="#0D69B2"/>
</g>
<defs>
<clipPath id="clip0_1_3053">
<rect width="97.3234" height="80.7568" fill="white" transform="translate(0.820648 0.918915)"/>
</clipPath>
</defs>
</svg>
