<svg width="103" height="87" viewBox="0 0 103 87" fill="none" xmlns="http://www.w3.org/2000/svg">
<g clip-path="url(#clip0_1_3218)">
<path d="M102.185 78.3373H0.188232V86.6847H102.185V78.3373Z" fill="#E6E6E6"/>
<path d="M102.043 78.3443H0.163025V78.0653H102.089L102.043 78.3443Z" fill="#3F3D56"/>
<path d="M80.1831 32.8244V57.5352H22.1898V32.8244C22.1897 24.6238 25.0194 16.7336 30.0991 10.7698C35.1788 4.80608 42.1241 1.2202 49.5124 0.746698C50.0661 0.71093 50.6241 0.693265 51.1865 0.693703C51.5069 0.693703 51.8262 0.699 52.1431 0.71225C59.5005 0.970237 66.4917 4.32971 71.6898 10.105C71.8465 10.2786 72.0007 10.4535 72.155 10.631C77.3095 16.6079 80.1851 24.5573 80.1831 32.8244Z" fill="#E6E6E6"/>
<path d="M52.1431 0.712256V57.5352H49.5125V0.746698C50.0661 0.71093 50.6241 0.693265 51.1865 0.693703C51.5069 0.693703 51.8262 0.699 52.1431 0.712256Z" fill="white"/>
<path d="M74.385 13.546H27.988C28.6786 12.5263 29.4233 11.5529 30.218 10.631H72.155C72.9497 11.5529 73.6944 12.5263 74.385 13.546Z" fill="white"/>
<path d="M75.7697 21.8933H55.2161V60.4501H75.7697V21.8933Z" fill="white"/>
<path d="M62.3837 28.4071H59.2747V31.8521H62.3837V28.4071Z" fill="#E6E6E6"/>
<path d="M67.3926 28.4071H64.2836V31.8521H67.3926V28.4071Z" fill="#E6E6E6"/>
<path d="M72.4016 28.4071H69.2926V31.8521H72.4016V28.4071Z" fill="#E6E6E6"/>
<path d="M62.4701 36.2541H59.3611V39.6991H62.4701V36.2541Z" fill="#E6E6E6"/>
<path d="M67.479 36.2541H64.37V39.6991H67.479V36.2541Z" fill="#E6E6E6"/>
<path d="M72.4879 36.2541H69.3789V39.6991H72.4879V36.2541Z" fill="#E6E6E6"/>
<path d="M62.5564 44.1011H59.4474V47.5461H62.5564V44.1011Z" fill="#E6E6E6"/>
<path d="M67.5653 44.1011H64.4564V47.5461H67.5653V44.1011Z" fill="#E6E6E6"/>
<path d="M72.5743 44.1011H69.4653V47.5461H72.5743V44.1011Z" fill="#E6E6E6"/>
<path d="M62.6428 51.9481H59.5338V55.3931H62.6428V51.9481Z" fill="#E6E6E6"/>
<path d="M67.6517 51.9481H64.5427V55.3931H67.6517V51.9481Z" fill="#E6E6E6"/>
<path d="M72.6606 51.9481H69.5516V55.3931H72.6606V51.9481Z" fill="#E6E6E6"/>
<path d="M62.6428 51.9481H59.5338V55.3931H62.6428V51.9481Z" fill="#E6E6E6"/>
<path d="M67.6517 51.9481H64.5427V55.3931H67.6517V51.9481Z" fill="#E6E6E6"/>
<path d="M72.6606 51.9481H69.5516V55.3931H72.6606V51.9481Z" fill="#E6E6E6"/>
<path d="M29.0834 49.6953C31.4499 49.6953 33.3684 47.5695 33.3684 44.9472C33.3684 42.3249 31.4499 40.1991 29.0834 40.1991C26.7169 40.1991 24.7985 42.3249 24.7985 44.9472C24.7985 47.5695 26.7169 49.6953 29.0834 49.6953Z" fill="white"/>
<path d="M29.0952 44.9473H29.107L29.3189 58.4089H28.8716L29.0952 44.9473Z" fill="white"/>
<path d="M29.8754 52.2797L29.7767 52.0719L29.0684 52.4852L29.1671 52.6929L29.8754 52.2797Z" fill="white"/>
<path d="M41.6811 45.1584C45.2799 45.1584 48.1972 41.9257 48.1972 37.9381C48.1972 33.9504 45.2799 30.7177 41.6811 30.7177C38.0824 30.7177 35.1651 33.9504 35.1651 37.9381C35.1651 41.9257 38.0824 45.1584 41.6811 45.1584Z" fill="white"/>
<path d="M41.699 37.938H41.7169L42.0391 58.4088H41.3589L41.699 37.938Z" fill="white"/>
<path d="M42.8855 49.0884L42.7354 48.7724L41.6582 49.4008L41.8083 49.7167L42.8855 49.0884Z" fill="white"/>
<path d="M28.2415 31.0435L29.3423 30.068C28.4872 29.9634 28.1358 30.4802 27.992 30.8893C27.3239 30.5819 26.5967 30.9847 26.5967 30.9847L28.7991 31.8707C28.688 31.5418 28.4946 31.2549 28.2415 31.0435Z" fill="white"/>
<path d="M39.8402 23.0937L40.9409 22.1181C40.0858 22.0136 39.7344 22.5304 39.5906 22.9394C38.9226 22.632 38.1953 23.0349 38.1953 23.0349L40.3977 23.9208C40.2866 23.592 40.0932 23.305 39.8402 23.0937Z" fill="white"/>
<path d="M35.4159 30.646L36.5167 29.6705C35.6615 29.566 35.3102 30.0827 35.1664 30.4918C34.4983 30.1844 33.7711 30.5872 33.7711 30.5872L35.9735 31.4732C35.8624 31.1443 35.669 30.8574 35.4159 30.646Z" fill="white"/>
<path d="M83.2323 54.6202H19.1407V60.4501H83.2323V54.6202Z" fill="#E6E6E6"/>
<path d="M9.56806 69.7958C9.56806 69.7958 -3.39629 63.1826 1.15808 58.5966C5.71244 54.0106 9.56806 69.7958 9.56806 69.7958Z" fill="#E6E6E6"/>
<path d="M9.34245 71.339C9.34245 71.339 3.38355 49.6438 12.1582 50.6814C20.9329 51.7189 9.34245 71.339 9.34245 71.339Z" fill="#E6E6E6"/>
<path d="M4.99774 69.4149L5.24785 73.044L5.25182 73.1067C5.25158 73.6734 5.27742 74.2398 5.32923 74.8036C5.66865 78.5053 7.12759 80.1923 8.83265 80.1923C10.5377 80.1923 11.9331 78.5053 12.2725 74.8036C12.3244 74.2398 12.3502 73.6734 12.35 73.1067L12.352 73.0561L12.3529 73.044L12.604 69.4149H4.99774Z" fill="#E6E6E6"/>
<path d="M12.353 73.044L12.352 73.0561L12.35 73.1067C12.3502 73.6734 12.3244 74.2398 12.2726 74.8036H5.32925C5.27743 74.2398 5.2516 73.6734 5.25183 73.1067L5.24786 73.044H12.353Z" fill="white"/>
<path d="M96.3107 69.7958C96.3107 69.7958 83.3463 63.1826 87.9007 58.5966C92.4551 54.0106 96.3107 69.7958 96.3107 69.7958Z" fill="#E6E6E6"/>
<path d="M96.085 71.339C96.085 71.339 90.1261 49.6438 98.9008 50.6814C107.675 51.7189 96.085 71.339 96.085 71.339Z" fill="#E6E6E6"/>
<path d="M91.7404 69.4149L91.9905 73.044L91.9944 73.1067C91.9942 73.6734 92.02 74.2398 92.0718 74.8036C92.4113 78.5053 93.8702 80.1923 95.5753 80.1923C97.2803 80.1923 98.6757 78.5053 99.0152 74.8036C99.067 74.2398 99.0928 73.6734 99.0926 73.1067L99.0946 73.0561L99.0956 73.044L99.3466 69.4149H91.7404Z" fill="#E6E6E6"/>
<path d="M99.0955 73.044L99.0945 73.0561L99.0925 73.1067C99.0928 73.6734 99.0669 74.2398 99.0151 74.8036H92.0718C92.02 74.2398 91.9941 73.6734 91.9944 73.1067L91.9904 73.044H99.0955Z" fill="white"/>
<path d="M79.0973 82.934L78.2474 83.0446C77.576 83.4931 76.788 83.662 75.9153 83.6276C75.7934 83.6236 75.6747 83.5843 75.5708 83.5137C75.4669 83.4432 75.3814 83.3438 75.3228 83.2253C75.272 83.1214 75.2435 83.0059 75.2396 82.8878C75.2357 82.7697 75.2564 82.6522 75.3001 82.5444C75.3439 82.4366 75.4095 82.3415 75.4919 82.2664C75.5742 82.1913 75.6711 82.1383 75.775 82.1115L76.4208 81.9448L77.9792 80.2559L78.9194 78.3705L80.285 78.544L80.5693 80.9388C80.6054 81.418 80.472 81.894 80.1974 82.2662C79.9227 82.6385 79.5283 82.8779 79.0973 82.934Z" fill="#FFB8B8"/>
<path d="M65.8596 81.7224L65.0265 81.9396C64.4056 82.47 63.6402 82.7372 62.7696 82.8133C62.6481 82.8246 62.5261 82.8006 62.4156 82.7437C62.3051 82.6867 62.21 82.5987 62.1396 82.4884C62.0785 82.3916 62.0383 82.2804 62.0222 82.1636C62.0062 82.0468 62.0147 81.9274 62.0471 81.8148C62.0795 81.7022 62.1349 81.5994 62.209 81.5144C62.2831 81.4294 62.3739 81.3645 62.4743 81.3247L63.0988 81.0776L64.4734 79.2029L65.2136 77.2111H66.5882L67.1168 79.5544C67.2019 80.0259 67.1184 80.5156 66.8838 80.9201C66.6492 81.3246 66.282 81.6123 65.8596 81.7224Z" fill="#FFB8B8"/>
<path d="M65.1766 77.3436L66.7311 77.6086L69.1824 63.8951L73.4272 55.879L78.5689 79.1986L80.4821 79.596C80.2676 66.4639 81.3147 49.9311 78.9276 47.9291L68.5247 49.2541L63.9809 62.7689L65.1766 77.3436Z" fill="#2F2E41"/>
<path d="M72.7098 27.5245C74.6909 27.5245 76.297 25.7448 76.297 23.5495C76.297 21.3543 74.6909 19.5746 72.7098 19.5746C70.7286 19.5746 69.1226 21.3543 69.1226 23.5495C69.1226 25.7448 70.7286 27.5245 72.7098 27.5245Z" fill="#FFB8B8"/>
<path d="M77.7319 29.6445L73.4272 30.4394L72.3511 26.1995L75.4599 25.1396L77.7319 29.6445Z" fill="#FFB8B8"/>
<path d="M79.5255 48.4591L68.0464 49.6516C68.9667 46.1057 69.8099 42.5724 69.1226 39.0518C68.2499 35.9087 69.0922 34.0396 71.3945 32.5594L72.949 28.7169L77.1341 28.187C78.2423 30.1615 78.6957 32.502 78.4163 34.8065C77.82 39.818 77.981 44.4684 79.5255 48.4591Z" fill="#514CF3"/>
<path d="M72.6291 18.8549C71.4319 19.158 70.0692 19.5875 69.9928 19.9866C68.7613 20.3305 67.8318 21.1542 67.642 22.4099C67.6261 22.5184 67.6319 22.6295 67.659 22.7353C67.6861 22.8411 67.7337 22.939 67.7987 23.0221C67.8636 23.1053 67.9441 23.1716 68.0347 23.2165C68.1253 23.2615 68.2236 23.2838 68.3229 23.282C68.9926 23.2725 69.998 23.2014 70.6619 22.8941C72.5905 24.2711 72.9142 27.8525 72.072 30.2903L73.3973 30.1557L74.7685 25.7078L75.1188 29.9808L78.1432 29.5377L77.7537 24.0889C77.6339 22.8047 77.2395 21.5706 76.6031 20.4891C76.537 20.3805 76.4647 20.2767 76.3867 20.1783C75.9265 19.6023 75.3342 19.1752 74.6727 18.9421C74.0111 18.7091 73.3049 18.679 72.6291 18.8549Z" fill="#2F2E41"/>
<path d="M65.0327 84.3007C65.0262 84.3655 65.0321 84.4312 65.0499 84.4934C65.0677 84.5555 65.097 84.6129 65.1361 84.6618C65.1751 84.7106 65.223 84.7498 65.2766 84.7769C65.3301 84.804 65.3882 84.8183 65.4471 84.819L66.7923 84.8343C66.8647 84.8287 66.9326 84.7929 66.9821 84.734C67.0316 84.6752 67.0592 84.5977 67.0592 84.5172C67.0592 84.4537 67.042 84.3917 67.0099 84.339C66.9777 84.2864 66.9321 84.2457 66.8789 84.2221L66.482 84.0462L65.9048 83.1508H65.443C65.2163 83.4858 65.0747 83.882 65.033 84.2981L65.0327 84.3007Z" fill="#FFB8B8"/>
<path d="M61.8131 84.3007C61.8196 84.3655 61.8137 84.4312 61.7959 84.4934C61.7781 84.5555 61.7487 84.6129 61.7097 84.6618C61.6707 84.7106 61.6228 84.7498 61.5692 84.7769C61.5157 84.804 61.4576 84.8183 61.3987 84.819L60.0535 84.8343C59.9811 84.8287 59.9132 84.7929 59.8637 84.734C59.8142 84.6752 59.7866 84.5977 59.7866 84.5172C59.7866 84.4537 59.8038 84.3917 59.8359 84.339C59.8681 84.2864 59.9137 84.2457 59.9669 84.2221L60.3638 84.0462L60.941 83.1508H61.4027C61.6295 83.4858 61.7711 83.882 61.8128 84.2981L61.8131 84.3007Z" fill="#FFB8B8"/>
<path d="M60.8256 83.1509H61.5182L63.9424 71.5106L65.2122 83.2788H66.0203L67.1169 68.1209L61.5182 68.0569L60.8256 83.1509Z" fill="#3F3D56"/>
<path d="M57.7087 61.7891H58.6322V59.3587L58.8423 58.8931C58.8845 58.7997 58.9061 58.6966 58.9055 58.5921C58.9048 58.4876 58.8819 58.3848 58.8386 58.292C58.7953 58.1993 58.7329 58.1191 58.6563 58.0582C58.5798 57.9972 58.4913 57.9572 58.3981 57.9413C58.3128 57.9267 58.2257 57.9328 58.1428 57.9591C58.0598 57.9853 57.983 58.0311 57.9175 58.0934C57.852 58.1556 57.7995 58.2328 57.7634 58.3197C57.7274 58.4065 57.7087 58.501 57.7087 58.5966V61.7891Z" fill="#FFB8B8"/>
<path d="M63.1921 55.7771C64.3715 55.7771 65.3277 54.7176 65.3277 53.4107C65.3277 52.1038 64.3715 51.0443 63.1921 51.0443C62.0126 51.0443 61.0565 52.1038 61.0565 53.4107C61.0565 54.7176 62.0126 55.7771 63.1921 55.7771Z" fill="#FFB8B8"/>
<path d="M62.3262 57.44H64.5195V54.6259H62.3262V57.44Z" fill="#FFB8B8"/>
<path d="M61.2873 68.4407C63.2287 69.7682 65.2812 69.6384 67.4055 68.5686L66.9437 56.6725L64.5195 56.5446L61.9799 56.9284L60.7101 58.0796L61.2873 68.4407Z" fill="#514CF3"/>
<path d="M58.9786 64.2195L61.5182 62.0449L60.7101 58.0796L59.2094 61.1495L58.7477 60.6379L57.3624 61.7891L58.9786 64.2195Z" fill="#514CF3"/>
<path d="M70.2517 56.8768L69.444 57.3729L68.3808 55.2471L67.9933 54.9528C67.9156 54.8937 67.8515 54.8151 67.8064 54.7234C67.7612 54.6317 67.7363 54.5294 67.7336 54.425C67.7309 54.3206 67.7505 54.217 67.7907 54.1225C67.831 54.0281 67.8909 53.9455 67.9654 53.8816C68.0337 53.8231 68.1125 53.7816 68.1965 53.76C68.2806 53.7384 68.3678 53.7372 68.4523 53.7565C68.5368 53.7757 68.6166 53.815 68.6861 53.8717C68.7556 53.9283 68.8133 54.0009 68.8551 54.0845L69.1885 54.7511L70.2517 56.8768Z" fill="#FFB8B8"/>
<path d="M65.7317 60.446L68.7967 58.6431L70.4069 57.6958L70.6378 56.1609L69.5989 55.0096L68.329 55.905L68.4445 56.9284L66.9438 56.6725L65.7317 60.446Z" fill="#514CF3"/>
<path d="M63.6538 55.3294C65.0564 55.3294 66.1934 54.0695 66.1934 52.5153C66.1934 50.9611 65.0564 49.7012 63.6538 49.7012C62.2512 49.7012 61.1141 50.9611 61.1141 52.5153C61.1141 54.0695 62.2512 55.3294 63.6538 55.3294Z" fill="#2F2E41"/>
<path d="M65.039 50.5966C65.6766 50.5966 66.1934 50.0239 66.1934 49.3174C66.1934 48.611 65.6766 48.0383 65.039 48.0383C64.4015 48.0383 63.8846 48.611 63.8846 49.3174C63.8846 50.0239 64.4015 50.5966 65.039 50.5966Z" fill="#2F2E41"/>
<path d="M64.983 50.3868C65.2119 50.5192 65.4742 50.5628 65.728 50.5105C65.9818 50.4582 66.2125 50.3132 66.3831 50.0985C66.5537 49.8839 66.6545 49.612 66.6693 49.3264C66.6841 49.0408 66.612 48.758 66.4646 48.5231C66.5981 48.6344 66.7082 48.7765 66.7872 48.9395C66.8663 49.1025 66.9125 49.2826 66.9226 49.4673C66.9327 49.6521 66.9065 49.8371 66.8458 50.0095C66.7851 50.1819 66.6913 50.3376 66.5709 50.466C66.4506 50.5943 66.3065 50.6921 66.1487 50.7527C65.9908 50.8133 65.823 50.8352 65.6568 50.8169C65.4906 50.7985 65.33 50.7404 65.186 50.6466C65.042 50.5527 64.9182 50.4254 64.823 50.2733C64.8734 50.3159 64.927 50.3539 64.983 50.3868Z" fill="#2F2E41"/>
<path d="M72.1119 52.434L72.1912 55.5101C72.2022 55.9341 72.0677 56.347 71.8149 56.6656C71.5621 56.9841 71.2098 57.1847 70.8289 57.2269C70.5849 57.2539 70.3386 57.2149 70.1113 57.1131C69.884 57.0113 69.6823 56.8499 69.5238 56.6427C69.3652 56.4354 69.2545 56.1886 69.201 55.9235C69.1476 55.6583 69.1531 55.3827 69.2171 55.1204L69.84 52.5665L71.6336 41.7017L71.514 35.3418L75.3404 35.2094L74.623 42.3642L72.1119 52.434Z" fill="#FFB8B8"/>
<path d="M75.5796 35.8718C74.1933 35.2867 72.6612 35.2867 71.2749 35.8718L71.5141 30.5719C71.5141 30.0097 71.7156 29.4705 72.0744 29.0729C72.4332 28.6753 72.9198 28.452 73.4272 28.452C73.9346 28.452 74.4213 28.6753 74.7801 29.0729C75.1388 29.4705 75.3404 30.0097 75.3404 30.5719L75.5796 35.8718Z" fill="#514CF3"/>
</g>
<defs>
<clipPath id="clip0_1_3218">
<rect width="102.022" height="85.991" fill="white" transform="translate(0.163025 0.693695)"/>
</clipPath>
</defs>
</svg>
